Coordinates
version=1
nRows=7
nColumns=63
inDegrees=yes

Units are S.I. units (second, meters, Newtons, ...)
If the header above contains a line with 'inDegrees', this indicates whether rotational values are in degrees (yes) or radians (no).

endheader
time	pelvis_tilt	pelvis_list	pelvis_rotation	pelvis_tx	pelvis_ty	pelvis_tz	hip_flexion_r	hip_adduction_r	hip_rotation_r	knee_angle_r	knee_angle_r_beta	ankle_angle_r	subtalar_angle_r	mtp_angle_r	hip_flexion_l	hip_adduction_l	hip_rotation_l	knee_angle_l	knee_angle_l_beta	ankle_angle_l	subtalar_angle_l	mtp_angle_l	L5_S1_Flex_Ext	L5_S1_Lat_Bending	L5_S1_axial_rotation	L4_L5_Flex_Ext	L4_L5_Lat_Bending	L4_L5_axial_rotation	L3_L4_Flex_Ext	L3_L4_Lat_Bending	L3_L4_axial_rotation	L2_L3_Flex_Ext	L2_L3_Lat_Bending	L2_L3_axial_rotation	L1_L2_Flex_Ext	L1_L2_Lat_Bending	L1_L2_axial_rotation	L1_T12_Flex_Ext	L1_T12_Lat_Bending	L1_T12_axial_rotation	Abs_r3	Abs_r2	Abs_r1	Abs_t1	Abs_t2	neck_flexion	neck_bending	neck_rotation	arm_flex_r	arm_add_r	arm_rot_r	elbow_flex_r	pro_sup_r	wrist_flex_r	wrist_dev_r	arm_flex_l	arm_add_l	arm_rot_l	elbow_flex_l	pro_sup_l	wrist_flex_l	wrist_dev_l
      4.15000000	      5.05679938	    -20.79742032	     95.80947102	      0.27366378	      0.81144795	      0.81699763	     15.67646316	      4.13716684	     12.26147231	      9.71288628	      0.16952185	     24.16791247	    -11.79220541	      0.00000000	     12.21763295	     -4.01108879	      5.35002001	      1.92004025	      0.03351102	     26.35904272	    -12.25399928	      0.00000000	      0.19520472	      0.62776347	      1.20243037	      0.36251468	      0.83492541	      1.27758227	      0.32070183	      1.52634409	      1.27758227	      0.22309947	      1.52634409	      1.05212657	      0.18126710	      1.28013526	      0.97697467	      0.11153998	      0.97240561	      0.90182278	      1.39432778	      7.10138589	      6.68755698	      0.00000000	      0.00000000	     28.26265208	     -3.52845861	      8.70225751	     -2.24347681	    -15.40081616	     40.21847570	     25.18807205	     82.58237292	     -9.62858490	     -5.73787931	      6.65260534	     -1.55604468	    153.96322177	      0.49517170	      3.56289071	    -13.11358065	    -18.81510126
      4.16666667	      5.12422371	    -21.53025582	     95.95092700	      0.27381273	      0.80982311	      0.81869727	     16.61996097	      4.10984566	     12.14545998	      9.95968978	      0.17382938	     24.30511873	    -11.80057554	      0.00000000	     13.27165329	     -3.96407917	      5.55185174	      2.28314726	      0.03984844	     26.79003276	    -12.24005021	      0.00000000	      0.21269693	      0.60662961	      1.21671472	      0.39499946	      0.80681738	      1.29275939	      0.34943978	      1.47495923	      1.29275939	      0.24309132	      1.47495923	      1.06462538	      0.19751036	      1.23703910	      0.98858071	      0.12153502	      0.93966927	      0.91253604	      1.51927287	      6.86231548	      6.76700228	      0.00000000	      0.00000000	     28.29563824	     -3.49507637	      8.41799042	     -2.35378906	    -15.30308084	     39.97047152	     25.54327365	     82.87028446	    -10.26460840	     -5.90201345	      6.74402475	     -1.57739727	    153.32333946	      0.46659314	      3.29662622	    -13.43699404	    -19.40494687
      4.18333333	      5.19051532	    -22.31822807	     96.12658793	      0.27371306	      0.80816092	      0.82045176	     17.64565596	      4.05363218	     11.93937837	     10.28743132	      0.17954955	     24.48155126	    -11.73360102	      0.00000000	     14.39588179	     -3.88427784	      5.74058035	      2.66843270	      0.04657294	     27.28517906	    -12.22642787	      0.00000000	      0.22364900	      0.58388257	      1.24838915	      0.41533855	      0.77656382	      1.32641347	      0.36743294	      1.41965208	      1.32641347	      0.25560844	      1.41965208	      1.09234051	      0.20768046	      1.19065334	      1.01431618	      0.12779304	      0.90443410	      0.93629186	      1.59750242	      6.60499641	      6.94316594	      0.00000000	      0.00000000	     28.32343575	     -3.22421549	      8.21876626	     -2.47453387	    -15.24716188	     39.68076083	     25.96555485	     83.21261142	    -10.85411382	     -5.74092156	      6.83410588	     -1.52123662	    152.17420371	      0.44082529	      2.73447428	    -13.82784654	    -20.26344979
      4.20000000	      5.27637118	    -22.68370410	     96.27545645	      0.27337630	      0.80720112	      0.82179044	     18.01912734	      4.03014527	     11.94943719	     10.21263725	      0.17824415	     24.54233684	    -11.71315641	      0.00000000	     14.83161507	     -3.86663169	      5.80723957	      2.54955715	      0.04449817	     27.48458312	    -12.23094087	      0.00000000	      0.15563112	      0.57522775	      1.27567519	      0.28902255	      0.76505291	      1.35540489	      0.25568636	      1.39860875	      1.35540489	      0.17787080	      1.39860875	      1.11621579	      0.14451906	      1.17300443	      1.03648609	      0.08892762	      0.89102779	      0.95675639	      1.11165751	      6.50709137	      7.09492268	      0.00000000	      0.00000000	     28.34317465	     -3.18868168	      8.24417470	     -2.30225286	    -15.20537989	     39.63935478	     26.03286548	     83.25341311	    -10.91770742	     -5.69806092	      7.13580818	     -1.35943094	    151.99512707	      0.35803373	      2.61300383	    -13.91284149	    -20.40235013
      4.21666667	      5.29089502	    -23.86145879	     96.53153892	      0.27290070	      0.80541074	      0.82439761	     19.65972052	      3.75608190	     10.68010138	     10.89441158	      0.19014335	     25.08570152	    -10.25584596	      0.00000000	     16.55081947	     -3.64108456	      5.93563089	      3.23925153	      0.05653560	     27.91670897	    -12.03857713	      0.00000000	      0.18687870	      0.54823835	      1.17137429	      0.34705244	      0.72915700	      1.24458519	      0.30702302	      1.33298672	      1.24458519	      0.21358367	      1.33298672	      1.02495251	      0.17353556	      1.11796764	      0.95174161	      0.10678249	      0.84922120	      0.87853072	      1.33485587	      6.20178185	      6.51483241	      0.00000000	      0.00000000	     28.35943759	     -0.75570909	     10.74720502	     -2.28499120	    -15.03669964	     38.36324010	     26.84774506	     85.75306991	    -12.06615537	     -3.95299890	      6.67535547	     -1.19365602	    146.87701262	      0.38516138	      2.36737363	    -15.86487362	    -22.82222176
      4.23333333	      5.33231006	    -24.69198444	     96.65124145	      0.27236892	      0.80424989	      0.82687926	     20.80635428	      3.56141461	      9.79187292	     11.28802496	      0.19701320	     25.48133470	     -9.00714199	      0.00000000	     17.73561943	     -3.50162861	      5.93471205	      3.59499852	      0.06274456	     28.09551383	    -12.08640354	      0.00000000	      0.16339364	      0.53526300	      1.15246402	      0.30343833	      0.71189979	      1.22449302	      0.26843941	      1.30143846	      1.22449302	      0.18674259	      1.30143846	      1.00840602	      0.15172733	      1.09150831	      0.93637702	      0.09336313	      0.82912239	      0.86434802	      1.16710443	      6.05500211	      6.40965916	      0.00000000	      0.00000000	     28.36102800	      0.74749698	     12.46010831	     -2.31241977	    -14.92405622	     37.01876516	     27.38459334	     86.70012853	    -12.57628950	     -3.44268087	      6.74796718	     -0.96702612	    146.08466508	      0.34245198	      2.21290404	    -17.13980165	    -23.29948456
      4.25000000	      5.35614959	    -25.38538478	     96.71059621	      0.27195720	      0.80341123	      0.82956239	     21.86212645	      3.44357294	      9.58463525	     11.76725635	      0.20537737	     25.62687811	     -8.72681746	      0.00000000	     18.77202719	     -3.37475643	      5.87923190	      3.92845374	      0.06856445	     28.18601731	    -12.24294404	      0.00000000	      0.11963891	      0.52291272	      1.16303216	      0.22218141	      0.69547392	      1.23572168	      0.19655476	      1.27140999	      1.23572168	      0.13673531	      1.27140999	      1.01765314	      0.11109669	      1.06632362	      0.94496363	      0.06836167	      0.80999181	      0.87227412	      0.85456874	      5.91529329	      6.46843599	      0.00000000	      0.00000000	     28.35308933	      1.48341371	     13.27527860	     -2.30500724	    -14.82411490	     36.11007984	     27.84471864	     86.83144868	    -13.68965917	     -3.61770066	      6.95961311	     -0.78961716	    145.81170753	      0.30729040	      2.01418032	    -17.94853529	    -23.58679578
